<mxfile host="app.diagrams.net" modified="2024-07-18T09:15:42.292Z" agent="Mozilla/5.0 (Windows NT 10.0; Win64; x64) AppleWebKit/537.36 (KHTML, like Gecko) Chrome/126.0.0.0 Safari/537.36" etag="ukeFb1oa2yPyn68GmgXZ" version="24.7.1" type="github">
  <diagram name="第 1 页" id="07oJS_tgLps39-v8h6tn">
    <mxGraphModel dx="4284" dy="1843" grid="1" gridSize="10" guides="1" tooltips="1" connect="1" arrows="1" fold="1" page="1" pageScale="1" pageWidth="827" pageHeight="1169" math="0" shadow="0">
      <root>
        <mxCell id="0" />
        <mxCell id="1" parent="0" />
        <mxCell id="7OyMFdGxhK7rr36l4JkN-14" value="1.2PB" style="shape=cylinder3;whiteSpace=wrap;html=1;boundedLbl=1;backgroundOutline=1;size=15;fontSize=20;" vertex="1" parent="1">
          <mxGeometry x="-480" y="1060" width="140" height="480" as="geometry" />
        </mxCell>
        <mxCell id="7OyMFdGxhK7rr36l4JkN-27" value="" style="group" vertex="1" connectable="0" parent="1">
          <mxGeometry x="-20" y="650" width="740" height="150" as="geometry" />
        </mxCell>
        <mxCell id="7OyMFdGxhK7rr36l4JkN-26" value="" style="rounded=0;whiteSpace=wrap;html=1;" vertex="1" parent="7OyMFdGxhK7rr36l4JkN-27">
          <mxGeometry width="740" height="150" as="geometry" />
        </mxCell>
        <mxCell id="7OyMFdGxhK7rr36l4JkN-17" value="gamma数据处理" style="rounded=0;whiteSpace=wrap;html=1;fillColor=none;fontSize=19;" vertex="1" parent="7OyMFdGxhK7rr36l4JkN-27">
          <mxGeometry x="50" y="40" width="310" height="80" as="geometry" />
        </mxCell>
        <mxCell id="7OyMFdGxhK7rr36l4JkN-18" value="1GPU+1计算服务器" style="shape=process;whiteSpace=wrap;html=1;backgroundOutline=1;fontSize=18;" vertex="1" parent="7OyMFdGxhK7rr36l4JkN-27">
          <mxGeometry x="450" y="30" width="220" height="100" as="geometry" />
        </mxCell>
        <mxCell id="7OyMFdGxhK7rr36l4JkN-28" value="" style="group" vertex="1" connectable="0" parent="1">
          <mxGeometry x="-20" y="820" width="740" height="400" as="geometry" />
        </mxCell>
        <mxCell id="7OyMFdGxhK7rr36l4JkN-42" style="edgeStyle=orthogonalEdgeStyle;rounded=0;orthogonalLoop=1;jettySize=auto;html=1;" edge="1" parent="7OyMFdGxhK7rr36l4JkN-28" source="7OyMFdGxhK7rr36l4JkN-22">
          <mxGeometry relative="1" as="geometry">
            <mxPoint x="-320" y="500" as="targetPoint" />
            <Array as="points">
              <mxPoint x="-150" y="200" />
              <mxPoint x="-150" y="500" />
            </Array>
          </mxGeometry>
        </mxCell>
        <mxCell id="7OyMFdGxhK7rr36l4JkN-22" value="" style="rounded=0;whiteSpace=wrap;html=1;" vertex="1" parent="7OyMFdGxhK7rr36l4JkN-28">
          <mxGeometry width="740" height="400" as="geometry" />
        </mxCell>
        <mxCell id="7OyMFdGxhK7rr36l4JkN-25" style="edgeStyle=orthogonalEdgeStyle;rounded=0;orthogonalLoop=1;jettySize=auto;html=1;exitX=1;exitY=0.5;exitDx=0;exitDy=0;" edge="1" parent="7OyMFdGxhK7rr36l4JkN-28" source="7OyMFdGxhK7rr36l4JkN-21">
          <mxGeometry relative="1" as="geometry">
            <mxPoint x="480" y="190" as="targetPoint" />
          </mxGeometry>
        </mxCell>
        <mxCell id="7OyMFdGxhK7rr36l4JkN-21" value="" style="rounded=0;whiteSpace=wrap;html=1;fillStyle=zigzag-line;fontColor=default;dashed=1;dashPattern=8 8;" vertex="1" parent="7OyMFdGxhK7rr36l4JkN-28">
          <mxGeometry x="20" y="150" width="350" height="230" as="geometry" />
        </mxCell>
        <mxCell id="7OyMFdGxhK7rr36l4JkN-8" value="高分二号影像数据&amp;nbsp; 加密网" style="rounded=0;whiteSpace=wrap;html=1;fillColor=none;fontSize=19;" vertex="1" parent="7OyMFdGxhK7rr36l4JkN-28">
          <mxGeometry x="40" y="270" width="310" height="80" as="geometry" />
        </mxCell>
        <mxCell id="7OyMFdGxhK7rr36l4JkN-24" style="edgeStyle=orthogonalEdgeStyle;rounded=0;orthogonalLoop=1;jettySize=auto;html=1;exitX=1;exitY=0.5;exitDx=0;exitDy=0;entryX=0;entryY=0.5;entryDx=0;entryDy=0;" edge="1" parent="7OyMFdGxhK7rr36l4JkN-28" source="7OyMFdGxhK7rr36l4JkN-12" target="7OyMFdGxhK7rr36l4JkN-16">
          <mxGeometry relative="1" as="geometry" />
        </mxCell>
        <mxCell id="7OyMFdGxhK7rr36l4JkN-12" value="gamma数据处理" style="rounded=0;whiteSpace=wrap;html=1;fillColor=none;fontSize=19;dashed=1;dashPattern=8 8;" vertex="1" parent="7OyMFdGxhK7rr36l4JkN-28">
          <mxGeometry x="20" y="20" width="350" height="90" as="geometry" />
        </mxCell>
        <mxCell id="7OyMFdGxhK7rr36l4JkN-13" value="ENVI数据处理" style="rounded=0;whiteSpace=wrap;html=1;fillColor=none;fontSize=19;" vertex="1" parent="7OyMFdGxhK7rr36l4JkN-28">
          <mxGeometry x="40" y="170" width="310" height="80" as="geometry" />
        </mxCell>
        <mxCell id="7OyMFdGxhK7rr36l4JkN-16" value="1GPU+1计算服务器" style="shape=process;whiteSpace=wrap;html=1;backgroundOutline=1;fontSize=18;" vertex="1" parent="7OyMFdGxhK7rr36l4JkN-28">
          <mxGeometry x="480" y="140" width="220" height="100" as="geometry" />
        </mxCell>
        <mxCell id="7OyMFdGxhK7rr36l4JkN-37" value="" style="group" vertex="1" connectable="0" parent="1">
          <mxGeometry x="-20" y="270" width="740" height="320" as="geometry" />
        </mxCell>
        <mxCell id="7OyMFdGxhK7rr36l4JkN-35" value="" style="rounded=0;whiteSpace=wrap;html=1;" vertex="1" parent="7OyMFdGxhK7rr36l4JkN-37">
          <mxGeometry width="740" height="320" as="geometry" />
        </mxCell>
        <mxCell id="7OyMFdGxhK7rr36l4JkN-29" value="" style="group" vertex="1" connectable="0" parent="7OyMFdGxhK7rr36l4JkN-37">
          <mxGeometry x="50" y="30" width="576" height="260" as="geometry" />
        </mxCell>
        <mxCell id="7OyMFdGxhK7rr36l4JkN-9" style="edgeStyle=orthogonalEdgeStyle;rounded=0;orthogonalLoop=1;jettySize=auto;html=1;exitX=1;exitY=0.5;exitDx=0;exitDy=0;entryX=0;entryY=0.5;entryDx=0;entryDy=0;" edge="1" parent="7OyMFdGxhK7rr36l4JkN-29" source="7OyMFdGxhK7rr36l4JkN-1" target="7OyMFdGxhK7rr36l4JkN-3">
          <mxGeometry relative="1" as="geometry">
            <Array as="points">
              <mxPoint x="358" y="130" />
              <mxPoint x="358" y="30" />
            </Array>
          </mxGeometry>
        </mxCell>
        <mxCell id="7OyMFdGxhK7rr36l4JkN-10" style="edgeStyle=orthogonalEdgeStyle;rounded=0;orthogonalLoop=1;jettySize=auto;html=1;exitX=1;exitY=0.5;exitDx=0;exitDy=0;entryX=0;entryY=0.5;entryDx=0;entryDy=0;" edge="1" parent="7OyMFdGxhK7rr36l4JkN-29" source="7OyMFdGxhK7rr36l4JkN-1" target="7OyMFdGxhK7rr36l4JkN-6">
          <mxGeometry relative="1" as="geometry" />
        </mxCell>
        <mxCell id="7OyMFdGxhK7rr36l4JkN-11" style="edgeStyle=orthogonalEdgeStyle;rounded=0;orthogonalLoop=1;jettySize=auto;html=1;entryX=0;entryY=0.75;entryDx=0;entryDy=0;" edge="1" parent="7OyMFdGxhK7rr36l4JkN-29" source="7OyMFdGxhK7rr36l4JkN-1" target="7OyMFdGxhK7rr36l4JkN-7">
          <mxGeometry relative="1" as="geometry" />
        </mxCell>
        <mxCell id="7OyMFdGxhK7rr36l4JkN-1" value="内网无人机影像数据+超图平台" style="rounded=0;whiteSpace=wrap;html=1;fillColor=none;fontSize=19;" vertex="1" parent="7OyMFdGxhK7rr36l4JkN-29">
          <mxGeometry y="90" width="310" height="80" as="geometry" />
        </mxCell>
        <mxCell id="7OyMFdGxhK7rr36l4JkN-3" value="存储100TB" style="rounded=0;whiteSpace=wrap;html=1;fontSize=20;" vertex="1" parent="7OyMFdGxhK7rr36l4JkN-29">
          <mxGeometry x="406" width="120" height="60" as="geometry" />
        </mxCell>
        <mxCell id="7OyMFdGxhK7rr36l4JkN-5" style="edgeStyle=orthogonalEdgeStyle;rounded=0;orthogonalLoop=1;jettySize=auto;html=1;exitX=0.5;exitY=1;exitDx=0;exitDy=0;entryX=0.5;entryY=0.833;entryDx=0;entryDy=0;entryPerimeter=0;" edge="1" source="7OyMFdGxhK7rr36l4JkN-6" target="7OyMFdGxhK7rr36l4JkN-6" parent="7OyMFdGxhK7rr36l4JkN-29">
          <mxGeometry relative="1" as="geometry" />
        </mxCell>
        <mxCell id="7OyMFdGxhK7rr36l4JkN-6" value="GPU" style="rounded=0;whiteSpace=wrap;html=1;fontSize=20;" vertex="1" parent="7OyMFdGxhK7rr36l4JkN-29">
          <mxGeometry x="406" y="100" width="120" height="60" as="geometry" />
        </mxCell>
        <mxCell id="7OyMFdGxhK7rr36l4JkN-7" value="连接涉密电脑" style="rounded=0;whiteSpace=wrap;html=1;fontSize=20;" vertex="1" parent="7OyMFdGxhK7rr36l4JkN-29">
          <mxGeometry x="406" y="200" width="170" height="60" as="geometry" />
        </mxCell>
        <mxCell id="7OyMFdGxhK7rr36l4JkN-39" value="6台电脑&lt;div&gt;6×48TB=288TB&lt;/div&gt;" style="rounded=0;whiteSpace=wrap;html=1;fontSize=20;" vertex="1" parent="1">
          <mxGeometry y="1440" width="240" height="130" as="geometry" />
        </mxCell>
        <mxCell id="7OyMFdGxhK7rr36l4JkN-41" style="edgeStyle=orthogonalEdgeStyle;rounded=0;orthogonalLoop=1;jettySize=auto;html=1;entryX=0.995;entryY=0.53;entryDx=0;entryDy=0;entryPerimeter=0;" edge="1" parent="1" source="7OyMFdGxhK7rr36l4JkN-39" target="7OyMFdGxhK7rr36l4JkN-14">
          <mxGeometry relative="1" as="geometry" />
        </mxCell>
      </root>
    </mxGraphModel>
  </diagram>
</mxfile>
